<?xml version="1.0" encoding="utf-8"?>
<!-- Generator: Adobe Illustrator 27.1.1, SVG Export Plug-In . SVG Version: 6.00 Build 0)  -->
<svg version="1.1" id="Capa_1" xmlns="http://www.w3.org/2000/svg" xmlns:xlink="http://www.w3.org/1999/xlink" x="0px" y="0px"
	 viewBox="0 0 91 769" style="enable-background:new 0 0 91 769;" xml:space="preserve">
<style type="text/css">
	.st0{fill:#0B0A54;}
	.st1{fill:none;}
	.st2{fill:#3415B7;stroke:#361AD8;stroke-miterlimit:10;}
	.st3{fill:#FFFFFF;}
	.st4{fill:url(#SVGID_1_);}
	.st5{fill:url(#SVGID_00000012469534885524028690000014996459048746928050_);}
	.st6{fill:url(#SVGID_00000064337794581193765170000012496871190671728316_);}
	.st7{fill:url(#SVGID_00000126317279304403833950000013903592549209992868_);}
	.st8{fill:url(#SVGID_00000067199735212197327530000012843022354532302481_);}
	.st9{fill:url(#SVGID_00000166648929793128844000000004565386176363221129_);}
	.st10{fill:url(#SVGID_00000115474751093589337570000017031578972549696905_);}
	.st11{fill:url(#SVGID_00000098221298332633709030000000634292794841608890_);}
	.st12{fill:url(#SVGID_00000139994477816198377520000013014417617956450490_);}
	.st13{fill:url(#SVGID_00000122678818056530941480000003240593326427681447_);}
	.st14{fill:url(#SVGID_00000074418287558856113660000010007887066398425015_);}
	.st15{fill:url(#SVGID_00000173855396074101438450000003315912219306060206_);}
	.st16{fill:url(#SVGID_00000101095110220671853590000008379051487462311597_);}
	.st17{fill:url(#SVGID_00000098209935691417522700000006084189778346860958_);}
	.st18{fill:url(#SVGID_00000080208905753130759310000009832085965342576299_);}
	.st19{fill:url(#SVGID_00000174587537481419052690000005335964526823298946_);}
	.st20{fill:url(#SVGID_00000130640960211556519980000001013383810922186934_);}
	.st21{fill:url(#SVGID_00000152957565666803054450000004534721744889889928_);}
	.st22{fill:url(#SVGID_00000150065025704858935730000017646132162093813657_);}
	.st23{fill:url(#SVGID_00000005971300179968686140000012150609016047603103_);}
	.st24{fill:url(#SVGID_00000066511686160031465200000007304523992709280409_);}
	.st25{fill:url(#SVGID_00000152982922673175601670000001945889371931350709_);}
	.st26{fill:#8CC63F;}
	.st27{fill:url(#SVGID_00000180336784063973972310000003467615499689406117_);}
	.st28{opacity:0.33;fill:#00FFFF;}
	.st29{opacity:0.19;fill:#3FA9F5;}
	.st30{opacity:0.39;fill:#FFFFFF;}
</style>
<path class="st0" d="M56.38,768H1.88c-1.18,0-2.14-0.96-2.14-2.14V2.14C-0.26,0.96,0.7,0,1.88,0H57.2
	c18.52,0,33.54,15.02,33.54,33.54v700.1C90.74,752.62,75.36,768,56.38,768z"/>
<g>
	<rect x="18.9" y="50.61" class="st1" width="62.84" height="21.39"/>
	<path class="st2" d="M27.06,50.61c2.07,0,3.8,0.69,5.19,2.07c1.39,1.38,2.09,3.08,2.09,5.09c0,2-0.69,3.69-2.08,5.08
		c-1.39,1.39-3.08,2.09-5.08,2.09c-2.02,0-3.73-0.69-5.12-2.08c-1.39-1.39-2.09-3.06-2.09-5.03c0-1.31,0.32-2.53,0.95-3.65
		c0.63-1.12,1.5-2,2.59-2.63C24.6,50.92,25.78,50.61,27.06,50.61z M27.12,51.93c-1.01,0-1.97,0.26-2.87,0.79
		c-0.9,0.53-1.61,1.24-2.12,2.13c-0.51,0.89-0.76,1.88-0.76,2.98c0,1.62,0.56,2.99,1.69,4.11c1.12,1.12,2.48,1.68,4.07,1.68
		c1.06,0,2.04-0.26,2.94-0.77s1.6-1.22,2.11-2.11c0.5-0.89,0.76-1.88,0.76-2.97c0-1.08-0.25-2.06-0.76-2.94
		c-0.5-0.88-1.22-1.58-2.13-2.1C29.12,52.2,28.15,51.93,27.12,51.93z"/>
	<path class="st2" d="M45.67,50.95l6.36,13.65h-1.47l-2.15-4.49h-5.88l-2.13,4.49h-1.52l6.45-13.65H45.67z M45.5,53.85l-2.34,4.94
		h4.67L45.5,53.85z"/>
	<path class="st2" d="M69.88,53.48l-1.08,0.83c-0.59-0.77-1.31-1.36-2.14-1.76c-0.83-0.4-1.75-0.6-2.74-0.6
		c-1.09,0-2.1,0.26-3.02,0.78c-0.93,0.52-1.65,1.22-2.16,2.11c-0.51,0.88-0.77,1.87-0.77,2.97c0,1.66,0.57,3.05,1.71,4.17
		c1.14,1.11,2.58,1.67,4.32,1.67c1.91,0,3.51-0.75,4.8-2.25l1.08,0.82c-0.68,0.87-1.53,1.54-2.55,2.01
		c-1.02,0.47-2.15,0.71-3.41,0.71c-2.39,0-4.27-0.79-5.65-2.38c-1.16-1.34-1.73-2.96-1.73-4.86c0-2,0.7-3.68,2.1-5.04
		c1.4-1.36,3.16-2.05,5.27-2.05c1.27,0,2.42,0.25,3.45,0.76C68.38,51.87,69.22,52.57,69.88,53.48z"/>
</g>
<path class="st3" d="M37.57,721.66c0-6.18,4.24-12.87,8.24-14.42c-5.29,1.58-9.22,7.44-9.22,14.42s3.93,12.84,9.22,14.42
	C41.92,733.98,37.57,727.85,37.57,721.66z"/>
<linearGradient id="SVGID_1_" gradientUnits="userSpaceOnUse" x1="54.0472" y1="734.4424" x2="54.0472" y2="740.4014">
	<stop  offset="0" style="stop-color:#000000"/>
	<stop  offset="0.0137" style="stop-color:#070707"/>
	<stop  offset="0.131" style="stop-color:#414141"/>
	<stop  offset="0.2516" style="stop-color:#737373"/>
	<stop  offset="0.3727" style="stop-color:#9E9E9E"/>
	<stop  offset="0.4945" style="stop-color:#C1C1C1"/>
	<stop  offset="0.6174" style="stop-color:#DCDCDC"/>
	<stop  offset="0.7415" style="stop-color:#F0F0F0"/>
	<stop  offset="0.8679" style="stop-color:#FBFBFB"/>
	<stop  offset="1" style="stop-color:#FFFFFF"/>
</linearGradient>
<path class="st4" d="M54.05,738.35c-4.99,0-9.53-1.85-12.93-4.88c3.21,3.65,7.82,5.95,12.93,5.95c5.12,0,9.72-2.29,12.93-5.95
	C63.58,736.5,59.04,738.35,54.05,738.35z"/>
<path class="st3" d="M53.92,703.64c-5.16,0-9.81,2.18-13.08,5.66c3.21-3.02,7.54-4.88,12.3-4.88c9.92,0,17.96,8.04,17.96,17.96
	c0,4.76-1.86,9.09-4.88,12.3c3.48-3.28,5.66-7.92,5.66-13.08C71.88,711.68,63.84,703.64,53.92,703.64z"/>
<path class="st3" d="M13.93,709.36c0-5.56,3.81-11.58,7.42-12.98c-4.76,1.42-8.29,6.69-8.29,12.98c0,6.28,3.53,11.55,8.29,12.98
	C17.85,720.44,13.93,714.92,13.93,709.36z"/>
<linearGradient id="SVGID_00000177485662459179665150000014975503385059123374_" gradientUnits="userSpaceOnUse" x1="28.7511" y1="720.8566" x2="28.7511" y2="726.2175">
	<stop  offset="0" style="stop-color:#000000"/>
	<stop  offset="0.0137" style="stop-color:#070707"/>
	<stop  offset="0.131" style="stop-color:#414141"/>
	<stop  offset="0.2516" style="stop-color:#737373"/>
	<stop  offset="0.3727" style="stop-color:#9E9E9E"/>
	<stop  offset="0.4945" style="stop-color:#C1C1C1"/>
	<stop  offset="0.6174" style="stop-color:#DCDCDC"/>
	<stop  offset="0.7415" style="stop-color:#F0F0F0"/>
	<stop  offset="0.8679" style="stop-color:#FBFBFB"/>
	<stop  offset="1" style="stop-color:#FFFFFF"/>
</linearGradient>
<path style="fill:url(#SVGID_00000177485662459179665150000014975503385059123374_);" d="M28.75,724.37
	c-4.49,0-8.58-1.66-11.63-4.39c2.89,3.29,7.03,5.35,11.63,5.35c4.6,0,8.75-2.06,11.63-5.35C37.33,722.71,33.24,724.37,28.75,724.37z
	"/>
<path class="st3" d="M28.63,693.15c-4.64,0-8.82,1.96-11.77,5.09c2.89-2.72,6.78-4.39,11.07-4.39c8.92,0,16.16,7.23,16.16,16.16
	c0,4.28-1.67,8.17-4.39,11.07c3.13-2.95,5.09-7.13,5.09-11.77C44.79,700.38,37.56,693.15,28.63,693.15z"/>
<path class="st3" d="M52.47,658.87c0-4.14,2.84-8.61,5.52-9.65c-3.54,1.06-6.17,4.98-6.17,9.65s2.63,8.59,6.17,9.65
	C55.38,667.12,52.47,663.01,52.47,658.87z"/>
<linearGradient id="SVGID_00000047740011062113632670000000984183793419684767_" gradientUnits="userSpaceOnUse" x1="63.4951" y1="667.4233" x2="63.4951" y2="671.4118">
	<stop  offset="0" style="stop-color:#000000"/>
	<stop  offset="0.0137" style="stop-color:#070707"/>
	<stop  offset="0.131" style="stop-color:#414141"/>
	<stop  offset="0.2516" style="stop-color:#737373"/>
	<stop  offset="0.3727" style="stop-color:#9E9E9E"/>
	<stop  offset="0.4945" style="stop-color:#C1C1C1"/>
	<stop  offset="0.6174" style="stop-color:#DCDCDC"/>
	<stop  offset="0.7415" style="stop-color:#F0F0F0"/>
	<stop  offset="0.8679" style="stop-color:#FBFBFB"/>
	<stop  offset="1" style="stop-color:#FFFFFF"/>
</linearGradient>
<path style="fill:url(#SVGID_00000047740011062113632670000000984183793419684767_);" d="M63.49,670.04c-3.34,0-6.38-1.24-8.66-3.26
	c2.15,2.45,5.23,3.98,8.66,3.98c3.42,0,6.51-1.53,8.66-3.98C69.88,668.8,66.84,670.04,63.49,670.04z"/>
<path class="st3" d="M63.41,646.81c-3.45,0-6.56,1.46-8.76,3.79c2.15-2.02,5.05-3.27,8.23-3.27c6.64,0,12.02,5.38,12.02,12.02
	c0,3.19-1.24,6.08-3.27,8.23c2.33-2.19,3.79-5.3,3.79-8.76C75.43,652.19,70.05,646.81,63.41,646.81z"/>
<path class="st3" d="M62.06,688.74c0-2.88,1.97-5.99,3.84-6.72c-2.46,0.74-4.29,3.46-4.29,6.72s1.83,5.98,4.29,6.72
	C64.09,694.48,62.06,691.62,62.06,688.74z"/>
<linearGradient id="SVGID_00000180330704760646290450000004280784957526253455_" gradientUnits="userSpaceOnUse" x1="69.7336" y1="694.6918" x2="69.7336" y2="697.4673">
	<stop  offset="0" style="stop-color:#000000"/>
	<stop  offset="0.0137" style="stop-color:#070707"/>
	<stop  offset="0.131" style="stop-color:#414141"/>
	<stop  offset="0.2516" style="stop-color:#737373"/>
	<stop  offset="0.3727" style="stop-color:#9E9E9E"/>
	<stop  offset="0.4945" style="stop-color:#C1C1C1"/>
	<stop  offset="0.6174" style="stop-color:#DCDCDC"/>
	<stop  offset="0.7415" style="stop-color:#F0F0F0"/>
	<stop  offset="0.8679" style="stop-color:#FBFBFB"/>
	<stop  offset="1" style="stop-color:#FFFFFF"/>
</linearGradient>
<path style="fill:url(#SVGID_00000180330704760646290450000004280784957526253455_);" d="M69.73,696.51c-2.32,0-4.44-0.86-6.02-2.27
	c1.5,1.7,3.64,2.77,6.02,2.77c2.38,0,4.53-1.07,6.02-2.77C74.17,695.65,72.06,696.51,69.73,696.51z"/>
<path class="st3" d="M69.67,680.35c-2.4,0-4.57,1.01-6.09,2.64c1.5-1.41,3.51-2.27,5.73-2.27c4.62,0,8.37,3.75,8.37,8.37
	c0,2.22-0.86,4.23-2.27,5.73c1.62-1.53,2.64-3.69,2.64-6.09C78.04,684.09,74.29,680.35,69.67,680.35z"/>
<path class="st3" d="M40.57,680.46c0-2.03,1.39-4.22,2.7-4.73c-1.73,0.52-3.02,2.44-3.02,4.73c0,2.29,1.29,4.21,3.02,4.73
	C41.99,684.5,40.57,682.49,40.57,680.46z"/>
<linearGradient id="SVGID_00000114063938876455254990000009257460129864981907_" gradientUnits="userSpaceOnUse" x1="45.9691" y1="684.6533" x2="45.9691" y2="686.6077">
	<stop  offset="0" style="stop-color:#000000"/>
	<stop  offset="0.0137" style="stop-color:#070707"/>
	<stop  offset="0.131" style="stop-color:#414141"/>
	<stop  offset="0.2516" style="stop-color:#737373"/>
	<stop  offset="0.3727" style="stop-color:#9E9E9E"/>
	<stop  offset="0.4945" style="stop-color:#C1C1C1"/>
	<stop  offset="0.6174" style="stop-color:#DCDCDC"/>
	<stop  offset="0.7415" style="stop-color:#F0F0F0"/>
	<stop  offset="0.8679" style="stop-color:#FBFBFB"/>
	<stop  offset="1" style="stop-color:#FFFFFF"/>
</linearGradient>
<path style="fill:url(#SVGID_00000114063938876455254990000009257460129864981907_);" d="M45.97,685.93c-1.64,0-3.13-0.61-4.24-1.6
	c1.05,1.2,2.56,1.95,4.24,1.95c1.68,0,3.19-0.75,4.24-1.95C49.1,685.33,47.61,685.93,45.97,685.93z"/>
<path class="st3" d="M45.93,674.55c-1.69,0-3.22,0.71-4.29,1.86c1.05-0.99,2.47-1.6,4.03-1.6c3.25,0,5.89,2.64,5.89,5.89
	c0,1.56-0.61,2.98-1.6,4.03c1.14-1.07,1.86-2.6,1.86-4.29C51.82,677.19,49.18,674.55,45.93,674.55z"/>
<path class="st3" d="M27.9,651.42c0-3.05,2.09-6.34,4.06-7.1c-2.61,0.78-4.54,3.66-4.54,7.1c0,3.44,1.93,6.32,4.54,7.1
	C30.04,657.48,27.9,654.46,27.9,651.42z"/>
<linearGradient id="SVGID_00000047044689671498451230000009179864126299053475_" gradientUnits="userSpaceOnUse" x1="36.0111" y1="657.7099" x2="36.0111" y2="660.6451">
	<stop  offset="0" style="stop-color:#000000"/>
	<stop  offset="0.0137" style="stop-color:#070707"/>
	<stop  offset="0.131" style="stop-color:#414141"/>
	<stop  offset="0.2516" style="stop-color:#737373"/>
	<stop  offset="0.3727" style="stop-color:#9E9E9E"/>
	<stop  offset="0.4945" style="stop-color:#C1C1C1"/>
	<stop  offset="0.6174" style="stop-color:#DCDCDC"/>
	<stop  offset="0.7415" style="stop-color:#F0F0F0"/>
	<stop  offset="0.8679" style="stop-color:#FBFBFB"/>
	<stop  offset="1" style="stop-color:#FFFFFF"/>
</linearGradient>
<path style="fill:url(#SVGID_00000047044689671498451230000009179864126299053475_);" d="M36.01,659.63c-2.46,0-4.7-0.91-6.37-2.4
	c1.58,1.8,3.85,2.93,6.37,2.93c2.52,0,4.79-1.13,6.37-2.93C40.71,658.72,38.47,659.63,36.01,659.63z"/>
<path class="st3" d="M35.95,642.54c-2.54,0-4.83,1.07-6.44,2.79c1.58-1.49,3.71-2.4,6.06-2.4c4.89,0,8.85,3.96,8.85,8.85
	c0,2.35-0.91,4.48-2.4,6.06c1.72-1.61,2.79-3.9,2.79-6.44C44.79,646.5,40.83,642.54,35.95,642.54z"/>
<linearGradient id="SVGID_00000136392085840512900940000006930416025558720897_" gradientUnits="userSpaceOnUse" x1="44.4729" y1="611.8585" x2="19.0434" y2="618.2731">
	<stop  offset="0" style="stop-color:#000000"/>
	<stop  offset="0.1293" style="stop-color:#1A1A1A"/>
	<stop  offset="0.4068" style="stop-color:#5E5E5E"/>
	<stop  offset="0.8074" style="stop-color:#C9C9C9"/>
	<stop  offset="1" style="stop-color:#FFFFFF"/>
</linearGradient>
<path style="fill:url(#SVGID_00000136392085840512900940000006930416025558720897_);" d="M30.73,613.25
	c0-6.18,4.24-12.87,8.24-14.42c-5.29,1.58-9.22,7.44-9.22,14.42c0,6.99,3.93,12.84,9.22,14.42
	C35.08,625.57,30.73,619.43,30.73,613.25z"/>
<linearGradient id="SVGID_00000136403942888329325680000018361564342329160325_" gradientUnits="userSpaceOnUse" x1="47.1988" y1="626.0258" x2="47.1988" y2="631.9848">
	<stop  offset="0" style="stop-color:#000000"/>
	<stop  offset="0.0137" style="stop-color:#070707"/>
	<stop  offset="0.131" style="stop-color:#414141"/>
	<stop  offset="0.2516" style="stop-color:#737373"/>
	<stop  offset="0.3727" style="stop-color:#9E9E9E"/>
	<stop  offset="0.4945" style="stop-color:#C1C1C1"/>
	<stop  offset="0.6174" style="stop-color:#DCDCDC"/>
	<stop  offset="0.7415" style="stop-color:#F0F0F0"/>
	<stop  offset="0.8679" style="stop-color:#FBFBFB"/>
	<stop  offset="1" style="stop-color:#FFFFFF"/>
</linearGradient>
<path style="fill:url(#SVGID_00000136403942888329325680000018361564342329160325_);" d="M47.2,629.93c-4.99,0-9.53-1.85-12.93-4.88
	c3.21,3.65,7.82,5.95,12.93,5.95c5.12,0,9.72-2.29,12.93-5.95C56.73,628.08,52.19,629.93,47.2,629.93z"/>
<linearGradient id="SVGID_00000174575899830401024470000008192355689824023424_" gradientUnits="userSpaceOnUse" x1="55.1013" y1="605.6321" x2="60.4474" y2="600.6046">
	<stop  offset="0" style="stop-color:#000000"/>
	<stop  offset="0.114" style="stop-color:#161616"/>
	<stop  offset="0.3512" style="stop-color:#4E4E4E"/>
	<stop  offset="0.6876" style="stop-color:#A7A7A7"/>
	<stop  offset="1" style="stop-color:#FFFFFF"/>
</linearGradient>
<path style="fill:url(#SVGID_00000174575899830401024470000008192355689824023424_);" d="M47.07,595.23
	c-5.16,0-9.81,2.18-13.08,5.66c3.21-3.02,7.54-4.88,12.3-4.88c9.92,0,17.96,8.04,17.96,17.96c0,4.76-1.86,9.09-4.88,12.3
	c3.48-3.28,5.66-7.92,5.66-13.08C65.03,603.27,56.99,595.23,47.07,595.23z"/>
<path class="st3" d="M30.73,613.25c0-6.18,4.24-12.87,8.24-14.42c-5.29,1.58-9.22,7.44-9.22,14.42c0,6.99,3.93,12.84,9.22,14.42
	C35.08,625.57,30.73,619.43,30.73,613.25z"/>
<linearGradient id="SVGID_00000114064061195226118800000000507686135018067868_" gradientUnits="userSpaceOnUse" x1="47.1988" y1="626.0258" x2="47.1988" y2="631.9848">
	<stop  offset="0" style="stop-color:#000000"/>
	<stop  offset="0.0137" style="stop-color:#070707"/>
	<stop  offset="0.131" style="stop-color:#414141"/>
	<stop  offset="0.2516" style="stop-color:#737373"/>
	<stop  offset="0.3727" style="stop-color:#9E9E9E"/>
	<stop  offset="0.4945" style="stop-color:#C1C1C1"/>
	<stop  offset="0.6174" style="stop-color:#DCDCDC"/>
	<stop  offset="0.7415" style="stop-color:#F0F0F0"/>
	<stop  offset="0.8679" style="stop-color:#FBFBFB"/>
	<stop  offset="1" style="stop-color:#FFFFFF"/>
</linearGradient>
<path style="fill:url(#SVGID_00000114064061195226118800000000507686135018067868_);" d="M47.2,629.93c-4.99,0-9.53-1.85-12.93-4.88
	c3.21,3.65,7.82,5.95,12.93,5.95c5.12,0,9.72-2.29,12.93-5.95C56.73,628.08,52.19,629.93,47.2,629.93z"/>
<path class="st3" d="M47.07,595.23c-5.16,0-9.81,2.18-13.08,5.66c3.21-3.02,7.54-4.88,12.3-4.88c9.92,0,17.96,8.04,17.96,17.96
	c0,4.76-1.86,9.09-4.88,12.3c3.48-3.28,5.66-7.92,5.66-13.08C65.03,603.27,56.99,595.23,47.07,595.23z"/>
<path class="st3" d="M7.75,595.01c0-3.19,2.19-6.64,4.26-7.45c-2.73,0.82-4.76,3.84-4.76,7.45c0,3.61,2.03,6.63,4.76,7.45
	C10,601.37,7.75,598.2,7.75,595.01z"/>
<linearGradient id="SVGID_00000023976847659584665350000010352066214465669535_" gradientUnits="userSpaceOnUse" x1="16.2578" y1="601.6059" x2="16.2578" y2="604.6818">
	<stop  offset="0" style="stop-color:#000000"/>
	<stop  offset="0.0137" style="stop-color:#070707"/>
	<stop  offset="0.131" style="stop-color:#414141"/>
	<stop  offset="0.2516" style="stop-color:#737373"/>
	<stop  offset="0.3727" style="stop-color:#9E9E9E"/>
	<stop  offset="0.4945" style="stop-color:#C1C1C1"/>
	<stop  offset="0.6174" style="stop-color:#DCDCDC"/>
	<stop  offset="0.7415" style="stop-color:#F0F0F0"/>
	<stop  offset="0.8679" style="stop-color:#FBFBFB"/>
	<stop  offset="1" style="stop-color:#FFFFFF"/>
</linearGradient>
<path style="fill:url(#SVGID_00000023976847659584665350000010352066214465669535_);" d="M16.26,603.62c-2.58,0-4.92-0.95-6.68-2.52
	c1.66,1.89,4.03,3.07,6.68,3.07c2.64,0,5.02-1.18,6.68-3.07C21.18,602.67,18.83,603.62,16.26,603.62z"/>
<path class="st3" d="M16.19,585.71c-2.66,0-5.06,1.12-6.75,2.92c1.66-1.56,3.89-2.52,6.35-2.52c5.12,0,9.27,4.15,9.27,9.27
	c0,2.46-0.96,4.69-2.52,6.35c1.8-1.69,2.92-4.09,2.92-6.75C25.46,589.86,21.31,585.71,16.19,585.71z"/>
<path class="st3" d="M31.04,586.75c0-2.03,1.39-4.22,2.7-4.73c-1.73,0.52-3.02,2.44-3.02,4.73s1.29,4.21,3.02,4.73
	C32.46,590.8,31.04,588.78,31.04,586.75z"/>
<linearGradient id="SVGID_00000088102325639615661810000010491414405567681974_" gradientUnits="userSpaceOnUse" x1="36.4383" y1="590.946" x2="36.4383" y2="592.9003">
	<stop  offset="0" style="stop-color:#000000"/>
	<stop  offset="0.0137" style="stop-color:#070707"/>
	<stop  offset="0.131" style="stop-color:#414141"/>
	<stop  offset="0.2516" style="stop-color:#737373"/>
	<stop  offset="0.3727" style="stop-color:#9E9E9E"/>
	<stop  offset="0.4945" style="stop-color:#C1C1C1"/>
	<stop  offset="0.6174" style="stop-color:#DCDCDC"/>
	<stop  offset="0.7415" style="stop-color:#F0F0F0"/>
	<stop  offset="0.8679" style="stop-color:#FBFBFB"/>
	<stop  offset="1" style="stop-color:#FFFFFF"/>
</linearGradient>
<path style="fill:url(#SVGID_00000088102325639615661810000010491414405567681974_);" d="M36.44,592.23c-1.64,0-3.13-0.61-4.24-1.6
	c1.05,1.2,2.56,1.95,4.24,1.95c1.68,0,3.19-0.75,4.24-1.95C39.56,591.62,38.07,592.23,36.44,592.23z"/>
<path class="st3" d="M36.4,580.84c-1.69,0-3.22,0.71-4.29,1.86c1.05-0.99,2.47-1.6,4.03-1.6c3.25,0,5.89,2.64,5.89,5.89
	c0,1.56-0.61,2.98-1.6,4.03c1.14-1.07,1.86-2.6,1.86-4.29C42.29,583.48,39.65,580.84,36.4,580.84z"/>
<path class="st3" d="M44.05,569.76c0-1.17,0.8-2.43,1.56-2.72c-1,0.3-1.74,1.4-1.74,2.72c0,1.32,0.74,2.42,1.74,2.72
	C44.87,572.08,44.05,570.92,44.05,569.76z"/>
<linearGradient id="SVGID_00000034804029655840747920000000209073420271772811_" gradientUnits="userSpaceOnUse" x1="47.1563" y1="572.1665" x2="47.1563" y2="573.2908">
	<stop  offset="0" style="stop-color:#000000"/>
	<stop  offset="0.0137" style="stop-color:#070707"/>
	<stop  offset="0.131" style="stop-color:#414141"/>
	<stop  offset="0.2516" style="stop-color:#737373"/>
	<stop  offset="0.3727" style="stop-color:#9E9E9E"/>
	<stop  offset="0.4945" style="stop-color:#C1C1C1"/>
	<stop  offset="0.6174" style="stop-color:#DCDCDC"/>
	<stop  offset="0.7415" style="stop-color:#F0F0F0"/>
	<stop  offset="0.8679" style="stop-color:#FBFBFB"/>
	<stop  offset="1" style="stop-color:#FFFFFF"/>
</linearGradient>
<path style="fill:url(#SVGID_00000034804029655840747920000000209073420271772811_);" d="M47.16,572.9c-0.94,0-1.8-0.35-2.44-0.92
	c0.61,0.69,1.47,1.12,2.44,1.12c0.97,0,1.83-0.43,2.44-1.12C48.95,572.55,48.1,572.9,47.16,572.9z"/>
<path class="st3" d="M47.13,566.36c-0.97,0-1.85,0.41-2.47,1.07c0.61-0.57,1.42-0.92,2.32-0.92c1.87,0,3.39,1.52,3.39,3.39
	c0,0.9-0.35,1.71-0.92,2.32c0.66-0.62,1.07-1.49,1.07-2.47C50.52,567.87,49,566.36,47.13,566.36z"/>
<path class="st3" d="M48.44,566.88c0-1.17,0.8-2.43,1.56-2.72c-1,0.3-1.74,1.4-1.74,2.72c0,1.32,0.74,2.42,1.74,2.72
	C49.26,569.2,48.44,568.04,48.44,566.88z"/>
<linearGradient id="SVGID_00000126299809761678917450000001727538174268693382_" gradientUnits="userSpaceOnUse" x1="51.546" y1="569.2869" x2="51.546" y2="570.4112">
	<stop  offset="0" style="stop-color:#000000"/>
	<stop  offset="0.0137" style="stop-color:#070707"/>
	<stop  offset="0.131" style="stop-color:#414141"/>
	<stop  offset="0.2516" style="stop-color:#737373"/>
	<stop  offset="0.3727" style="stop-color:#9E9E9E"/>
	<stop  offset="0.4945" style="stop-color:#C1C1C1"/>
	<stop  offset="0.6174" style="stop-color:#DCDCDC"/>
	<stop  offset="0.7415" style="stop-color:#F0F0F0"/>
	<stop  offset="0.8679" style="stop-color:#FBFBFB"/>
	<stop  offset="1" style="stop-color:#FFFFFF"/>
</linearGradient>
<path style="fill:url(#SVGID_00000126299809761678917450000001727538174268693382_);" d="M51.55,570.02c-0.94,0-1.8-0.35-2.44-0.92
	c0.61,0.69,1.47,1.12,2.44,1.12c0.97,0,1.83-0.43,2.44-1.12C53.34,569.67,52.49,570.02,51.55,570.02z"/>
<path class="st3" d="M51.52,563.48c-0.97,0-1.85,0.41-2.47,1.07c0.61-0.57,1.42-0.92,2.32-0.92c1.87,0,3.39,1.52,3.39,3.39
	c0,0.9-0.35,1.71-0.92,2.32c0.66-0.62,1.07-1.49,1.07-2.47C54.91,564.99,53.39,563.48,51.52,563.48z"/>
<path class="st3" d="M6.14,16.14c0-3.06,2.1-6.38,4.09-7.15c-2.62,0.78-4.57,3.69-4.57,7.15s1.95,6.36,4.57,7.15
	C8.3,22.25,6.14,19.21,6.14,16.14z"/>
<linearGradient id="SVGID_00000163035238561136386740000008054977871071241148_" gradientUnits="userSpaceOnUse" x1="14.3059" y1="22.4775" x2="14.3059" y2="25.4304">
	<stop  offset="0" style="stop-color:#000000"/>
	<stop  offset="0.0137" style="stop-color:#070707"/>
	<stop  offset="0.131" style="stop-color:#414141"/>
	<stop  offset="0.2516" style="stop-color:#737373"/>
	<stop  offset="0.3727" style="stop-color:#9E9E9E"/>
	<stop  offset="0.4945" style="stop-color:#C1C1C1"/>
	<stop  offset="0.6174" style="stop-color:#DCDCDC"/>
	<stop  offset="0.7415" style="stop-color:#F0F0F0"/>
	<stop  offset="0.8679" style="stop-color:#FBFBFB"/>
	<stop  offset="1" style="stop-color:#FFFFFF"/>
</linearGradient>
<path style="fill:url(#SVGID_00000163035238561136386740000008054977871071241148_);" d="M14.31,24.41c-2.47,0-4.72-0.92-6.41-2.42
	c1.59,1.81,3.87,2.95,6.41,2.95c2.54,0,4.82-1.14,6.41-2.95C19.03,23.5,16.78,24.41,14.31,24.41z"/>
<path class="st3" d="M14.24,7.21c-2.56,0-4.86,1.08-6.48,2.81c1.59-1.5,3.74-2.42,6.1-2.42c4.92,0,8.9,3.99,8.9,8.9
	c0,2.36-0.92,4.5-2.42,6.1c1.73-1.62,2.81-3.93,2.81-6.48C23.14,11.2,19.16,7.21,14.24,7.21z"/>
<path class="st3" d="M25.7,13.19c0.13-1.7,1.42-3.44,2.55-3.79c-1.48,0.33-2.68,1.85-2.82,3.77c-0.14,1.91,0.82,3.6,2.23,4.14
	C26.64,16.66,25.58,14.89,25.7,13.19z"/>
<linearGradient id="SVGID_00000183245802100184799540000001649658167317834634_" gradientUnits="userSpaceOnUse" x1="29.3496" y1="-4.6207" x2="29.3496" y2="-2.9829" gradientTransform="matrix(0.9973 0.0739 -0.0739 0.9973 0.3459 19.4696)">
	<stop  offset="0" style="stop-color:#000000"/>
	<stop  offset="0.0137" style="stop-color:#070707"/>
	<stop  offset="0.131" style="stop-color:#414141"/>
	<stop  offset="0.2516" style="stop-color:#737373"/>
	<stop  offset="0.3727" style="stop-color:#9E9E9E"/>
	<stop  offset="0.4945" style="stop-color:#C1C1C1"/>
	<stop  offset="0.6174" style="stop-color:#DCDCDC"/>
	<stop  offset="0.7415" style="stop-color:#F0F0F0"/>
	<stop  offset="0.8679" style="stop-color:#FBFBFB"/>
	<stop  offset="1" style="stop-color:#FFFFFF"/>
</linearGradient>
<path style="fill:url(#SVGID_00000183245802100184799540000001649658167317834634_);" d="M29.88,18.1c-1.37-0.1-2.58-0.7-3.45-1.6
	c0.81,1.07,2.02,1.79,3.42,1.89c1.4,0.1,2.71-0.43,3.67-1.37C32.53,17.79,31.25,18.2,29.88,18.1z"/>
<path class="st3" d="M30.55,8.59c-1.41-0.1-2.73,0.4-3.7,1.29c0.94-0.76,2.17-1.18,3.47-1.09c2.72,0.2,4.76,2.57,4.56,5.29
	c-0.1,1.3-0.69,2.45-1.59,3.27c1.02-0.83,1.71-2.06,1.82-3.47C35.31,11.16,33.27,8.79,30.55,8.59z"/>
<path class="st3" d="M32.53,21.41c0-1.17,0.8-2.43,1.56-2.72c-1,0.3-1.74,1.4-1.74,2.72s0.74,2.42,1.74,2.72
	C33.35,23.74,32.53,22.58,32.53,21.41z"/>
<linearGradient id="SVGID_00000179632448740226079580000005589798943515832964_" gradientUnits="userSpaceOnUse" x1="35.6351" y1="23.8215" x2="35.6351" y2="24.9458">
	<stop  offset="0" style="stop-color:#000000"/>
	<stop  offset="0.0137" style="stop-color:#070707"/>
	<stop  offset="0.131" style="stop-color:#414141"/>
	<stop  offset="0.2516" style="stop-color:#737373"/>
	<stop  offset="0.3727" style="stop-color:#9E9E9E"/>
	<stop  offset="0.4945" style="stop-color:#C1C1C1"/>
	<stop  offset="0.6174" style="stop-color:#DCDCDC"/>
	<stop  offset="0.7415" style="stop-color:#F0F0F0"/>
	<stop  offset="0.8679" style="stop-color:#FBFBFB"/>
	<stop  offset="1" style="stop-color:#FFFFFF"/>
</linearGradient>
<path style="fill:url(#SVGID_00000179632448740226079580000005589798943515832964_);" d="M35.64,24.56c-0.94,0-1.8-0.35-2.44-0.92
	c0.61,0.69,1.47,1.12,2.44,1.12c0.97,0,1.83-0.43,2.44-1.12C37.43,24.21,36.58,24.56,35.64,24.56z"/>
<path class="st3" d="M35.61,18.01c-0.97,0-1.85,0.41-2.47,1.07c0.61-0.57,1.42-0.92,2.32-0.92c1.87,0,3.39,1.52,3.39,3.39
	c0,0.9-0.35,1.71-0.92,2.32C38.59,23.25,39,22.37,39,21.4C39,19.53,37.48,18.01,35.61,18.01z"/>
<path class="st3" d="M42.89,12.97c0-2.29,1.57-4.76,3.05-5.33c-1.96,0.59-3.41,2.75-3.41,5.33s1.45,4.75,3.41,5.33
	C44.5,17.53,42.89,15.26,42.89,12.97z"/>
<linearGradient id="SVGID_00000036223742221240602930000005048791943064275135_" gradientUnits="userSpaceOnUse" x1="48.9803" y1="17.6973" x2="48.9803" y2="19.9004">
	<stop  offset="0" style="stop-color:#000000"/>
	<stop  offset="0.0137" style="stop-color:#070707"/>
	<stop  offset="0.131" style="stop-color:#414141"/>
	<stop  offset="0.2516" style="stop-color:#737373"/>
	<stop  offset="0.3727" style="stop-color:#9E9E9E"/>
	<stop  offset="0.4945" style="stop-color:#C1C1C1"/>
	<stop  offset="0.6174" style="stop-color:#DCDCDC"/>
	<stop  offset="0.7415" style="stop-color:#F0F0F0"/>
	<stop  offset="0.8679" style="stop-color:#FBFBFB"/>
	<stop  offset="1" style="stop-color:#FFFFFF"/>
</linearGradient>
<path style="fill:url(#SVGID_00000036223742221240602930000005048791943064275135_);" d="M48.98,19.14c-1.84,0-3.52-0.68-4.78-1.8
	c1.19,1.35,2.89,2.2,4.78,2.2c1.89,0,3.59-0.85,4.78-2.2C52.5,18.46,50.83,19.14,48.98,19.14z"/>
<path class="st3" d="M48.93,6.31c-1.91,0-3.63,0.81-4.84,2.09c1.19-1.12,2.79-1.8,4.55-1.8c3.67,0,6.64,2.97,6.64,6.64
	c0,1.76-0.69,3.36-1.8,4.55c1.29-1.21,2.09-2.93,2.09-4.84C55.57,9.28,52.6,6.31,48.93,6.31z"/>
<path class="st3" d="M45.69,20.21c0-1.17,0.8-2.43,1.56-2.72c-1,0.3-1.74,1.4-1.74,2.72c0,1.32,0.74,2.42,1.74,2.72
	C46.51,22.54,45.69,21.38,45.69,20.21z"/>
<linearGradient id="SVGID_00000008843283897772686340000008497776227994828707_" gradientUnits="userSpaceOnUse" x1="48.7936" y1="22.6235" x2="48.7936" y2="23.7478">
	<stop  offset="0" style="stop-color:#000000"/>
	<stop  offset="0.0137" style="stop-color:#070707"/>
	<stop  offset="0.131" style="stop-color:#414141"/>
	<stop  offset="0.2516" style="stop-color:#737373"/>
	<stop  offset="0.3727" style="stop-color:#9E9E9E"/>
	<stop  offset="0.4945" style="stop-color:#C1C1C1"/>
	<stop  offset="0.6174" style="stop-color:#DCDCDC"/>
	<stop  offset="0.7415" style="stop-color:#F0F0F0"/>
	<stop  offset="0.8679" style="stop-color:#FBFBFB"/>
	<stop  offset="1" style="stop-color:#FFFFFF"/>
</linearGradient>
<path style="fill:url(#SVGID_00000008843283897772686340000008497776227994828707_);" d="M48.79,23.36c-0.94,0-1.8-0.35-2.44-0.92
	c0.61,0.69,1.47,1.12,2.44,1.12c0.97,0,1.83-0.43,2.44-1.12C50.59,23.01,49.74,23.36,48.79,23.36z"/>
<path class="st3" d="M48.77,16.81c-0.97,0-1.85,0.41-2.47,1.07c0.61-0.57,1.42-0.92,2.32-0.92c1.87,0,3.39,1.52,3.39,3.39
	c0,0.9-0.35,1.71-0.92,2.32c0.66-0.62,1.07-1.49,1.07-2.47C52.16,18.33,50.64,16.81,48.77,16.81z"/>
<linearGradient id="SVGID_00000041994328388568295560000009410485445823235514_" gradientUnits="userSpaceOnUse" x1="61.7637" y1="27.6593" x2="59.4122" y2="28.2525">
	<stop  offset="0" style="stop-color:#000000"/>
	<stop  offset="0.1293" style="stop-color:#1A1A1A"/>
	<stop  offset="0.4068" style="stop-color:#5E5E5E"/>
	<stop  offset="0.8074" style="stop-color:#C9C9C9"/>
	<stop  offset="1" style="stop-color:#FFFFFF"/>
</linearGradient>
<path style="fill:url(#SVGID_00000041994328388568295560000009410485445823235514_);" d="M60.49,27.79c0-0.57,0.39-1.19,0.76-1.33
	c-0.49,0.15-0.85,0.69-0.85,1.33s0.36,1.19,0.85,1.33C60.89,28.93,60.49,28.36,60.49,27.79z"/>
<linearGradient id="SVGID_00000069389830332300440750000009793156599779008427_" gradientUnits="userSpaceOnUse" x1="62.0158" y1="28.9694" x2="62.0158" y2="29.5205">
	<stop  offset="0" style="stop-color:#000000"/>
	<stop  offset="0.0137" style="stop-color:#070707"/>
	<stop  offset="0.131" style="stop-color:#414141"/>
	<stop  offset="0.2516" style="stop-color:#737373"/>
	<stop  offset="0.3727" style="stop-color:#9E9E9E"/>
	<stop  offset="0.4945" style="stop-color:#C1C1C1"/>
	<stop  offset="0.6174" style="stop-color:#DCDCDC"/>
	<stop  offset="0.7415" style="stop-color:#F0F0F0"/>
	<stop  offset="0.8679" style="stop-color:#FBFBFB"/>
	<stop  offset="1" style="stop-color:#FFFFFF"/>
</linearGradient>
<path style="fill:url(#SVGID_00000069389830332300440750000009793156599779008427_);" d="M62.02,29.33c-0.46,0-0.88-0.17-1.2-0.45
	c0.3,0.34,0.72,0.55,1.2,0.55c0.47,0,0.9-0.21,1.2-0.55C62.9,29.16,62.48,29.33,62.02,29.33z"/>
<linearGradient id="SVGID_00000038396225741342941310000016390936052419760815_" gradientUnits="userSpaceOnUse" x1="62.7466" y1="27.0836" x2="63.2409" y2="26.6187">
	<stop  offset="0" style="stop-color:#000000"/>
	<stop  offset="0.114" style="stop-color:#161616"/>
	<stop  offset="0.3512" style="stop-color:#4E4E4E"/>
	<stop  offset="0.6876" style="stop-color:#A7A7A7"/>
	<stop  offset="1" style="stop-color:#FFFFFF"/>
</linearGradient>
<path style="fill:url(#SVGID_00000038396225741342941310000016390936052419760815_);" d="M62,26.12c-0.48,0-0.91,0.2-1.21,0.52
	c0.3-0.28,0.7-0.45,1.14-0.45c0.92,0,1.66,0.74,1.66,1.66c0,0.44-0.17,0.84-0.45,1.14c0.32-0.3,0.52-0.73,0.52-1.21
	C63.66,26.86,62.92,26.12,62,26.12z"/>
<path class="st26" d="M59.75,18.5c0-1.35,0.92-2.81,1.8-3.15c-1.15,0.35-2.01,1.62-2.01,3.15c0,1.53,0.86,2.8,2.01,3.15
	C60.69,21.19,59.75,19.85,59.75,18.5z"/>
<linearGradient id="SVGID_00000141432425829780368220000010464960948212094372_" gradientUnits="userSpaceOnUse" x1="63.3416" y1="21.293" x2="63.3416" y2="22.594">
	<stop  offset="0" style="stop-color:#000000"/>
	<stop  offset="0.0137" style="stop-color:#070707"/>
	<stop  offset="0.131" style="stop-color:#414141"/>
	<stop  offset="0.2516" style="stop-color:#737373"/>
	<stop  offset="0.3727" style="stop-color:#9E9E9E"/>
	<stop  offset="0.4945" style="stop-color:#C1C1C1"/>
	<stop  offset="0.6174" style="stop-color:#DCDCDC"/>
	<stop  offset="0.7415" style="stop-color:#F0F0F0"/>
	<stop  offset="0.8679" style="stop-color:#FBFBFB"/>
	<stop  offset="1" style="stop-color:#FFFFFF"/>
</linearGradient>
<path style="fill:url(#SVGID_00000141432425829780368220000010464960948212094372_);" d="M63.34,22.15c-1.09,0-2.08-0.4-2.82-1.06
	c0.7,0.8,1.71,1.3,2.82,1.3c1.12,0,2.12-0.5,2.82-1.3C65.42,21.74,64.43,22.15,63.34,22.15z"/>
<path class="st26" d="M63.31,14.57c-1.13,0-2.14,0.48-2.86,1.24c0.7-0.66,1.65-1.07,2.69-1.07c2.17,0,3.92,1.76,3.92,3.92
	c0,1.04-0.41,1.98-1.07,2.69c0.76-0.72,1.24-1.73,1.24-2.86C67.23,16.32,65.48,14.57,63.31,14.57z"/>
<path class="st28" d="M79.58,586.28c1.67,0.17,2.87,0.55,4.66,1.13c-1.23-1.1-6.92-1.62-9.98-2.46c-2.89-0.8-4.09-0.27-4.97-0.22
	c-3.23-1.28-4.68,1.38-7.02-0.44c-0.63-0.49-1.29,0.21-0.41,0.9c1.48,1.16-0.17,2.98,1.19,5.15c-0.1,1.07,0.15,2.65,0.66,3.51
	c0.02-0.4,0.08-0.9,0.15-1.37c0.16,0.35,0.34,0.67,0.54,0.91c-0.05-0.48-0.07-1.13-0.07-1.67c0.03,0.02,0.06,0.05,0.09,0.07
	c0.18,0.14,0.35,0.26,0.51,0.38c0.74,1.03,2.03,3.8,2.41,3.81c0.41,0.01,0.33-1.73,1.9-2.67c0.57-0.22,1.01-0.61,1.37-1
	c0.87,0.82,0.81,2.32,1.06,2.51c0.27,0.21,0.56-1.04,1.1-1.67c0.32-0.38,1.2-0.68,1.85-1.03c0.43-0.23-2.29-0.36-3.12-1.17
	c0.33-0.94,0.46-2.31,0.15-3.54C72.45,584.32,76.49,585.98,79.58,586.28z"/>
<path class="st29" d="M38.71,739.42c-3.52-2.32-6.92-4.75-12.57-1.28c-5.65,3.47-6.23,6.27-7.07,7c1.34-0.7,2.64-1.29,2.64-1.29
	s-2.13,2.96-3.96,3.15c-2,0.2-4.95-0.28-6.15,3.8c1.03-1.35,3.49-2.77,4.31-0.71c0.82,2.06-2.87,3.2-5.68,4.31
	c2.17-0.5,5.5-0.73,7.23-2.58c1.48-1.58,1.82-3.07,2.94-2.66c1.13,0.41,8.36,1.63,11.58-2.04c4.11-1.93,7.1-6.91,6.79-7.01
	C38.3,739.96,38.98,739.6,38.71,739.42z"/>
<path class="st30" d="M21.96,626.07c-0.44,1.11-1.42,2.93-4.58,3.07c-3.74,0.16-8.24,8.29-7.11,11.34c1.73,0.8,5.89,0.33,5.18,1.13
	c-0.71,0.8-2.78,1.45-3,1.45c0.62,0.8,3.78,2.9,6.4,2.35c0.09-1.82-1.87-3.29-1.56-3.77c0.37,0.19,2.55,3.2,4.22,1
	c0.81-1.06,1.33-3.89,0.82-4.58c0.76-0.71,0.9-1.57,0.9-1.57l0.39,0.99c-0.07,0.42,0.64,3.22,0.26,4.58
	c1.43-1.55,3.12-3.56-0.09-6.29c0.77-4.32-1.93-4.55-1.82-6.64C22.09,627.02,22.17,625.55,21.96,626.07z"/>
<path class="st28" d="M26.61,22.52c-0.61-0.8-1.19-1.29-2.04-2.01c0.95,0.28,3,3.01,4.39,4.3c1.32,1.22,1.42,1.99,1.67,2.46
	c1.67,1.24,0.77,2.81,2.43,3.43c0.45,0.17,0.3,0.72-0.33,0.49c-1.05-0.39-1.46,1.02-2.99,1.02c-0.51,0.39-1.4,0.76-1.99,0.77
	c0.2-0.14,0.43-0.32,0.65-0.51c-0.23,0.03-0.45,0.04-0.63,0.01c0.26-0.12,0.6-0.32,0.87-0.49c-0.02-0.01-0.04-0.01-0.06-0.02
	c-0.13-0.05-0.24-0.09-0.35-0.14c-0.76-0.05-2.57,0.16-2.69-0.03c-0.13-0.2,0.77-0.71,0.76-1.81c-0.07-0.36-0.01-0.71,0.08-1.01
	c-0.69-0.18-1.44,0.32-1.61,0.25c-0.19-0.07,0.35-0.61,0.5-1.08c0.09-0.28-0.03-0.82-0.06-1.26c-0.02-0.29,0.9,1.05,1.58,1.22
	c0.38-0.46,1.03-0.96,1.75-1.19C29.85,25.53,27.73,23.99,26.61,22.52z"/>
<g>
</g>
<g>
</g>
<g>
</g>
<g>
</g>
<g>
</g>
<g>
</g>
<g>
</g>
<g>
</g>
<g>
</g>
<g>
</g>
<g>
</g>
<g>
</g>
<g>
</g>
<g>
</g>
<g>
</g>
</svg>
