<?xml version="1.0" encoding="utf-8"?>
<!-- Generator: Adobe Illustrator 27.1.1, SVG Export Plug-In . SVG Version: 6.00 Build 0)  -->
<svg version="1.1" id="Capa_1" xmlns="http://www.w3.org/2000/svg" xmlns:xlink="http://www.w3.org/1999/xlink" x="0px" y="0px"
	 viewBox="0 0 320 347" style="enable-background:new 0 0 320 347;" xml:space="preserve">
<style type="text/css">
	.st0{fill:url(#SVGID_1_);}
	.st1{fill:url(#SVGID_00000002386771979512541100000007928497570999682468_);}
	.st2{fill:url(#SVGID_00000031197551455232019470000011085194264623136400_);}
	.st3{fill:url(#SVGID_00000052824801846894148060000006971119531702824618_);}
	.st4{fill:url(#SVGID_00000008108139159501450840000018358404602202719396_);}
	.st5{fill:url(#SVGID_00000020400218962660150690000012799074514719006387_);}
	.st6{fill:url(#SVGID_00000001643532011353265320000017602136268789593230_);}
	.st7{fill:url(#SVGID_00000005261383683831737940000009720114942688336014_);}
	.st8{fill:#FFFFFF;}
	.st9{fill:#E6E6E6;}
</style>
<g>
	<g>
		<linearGradient id="SVGID_1_" gradientUnits="userSpaceOnUse" x1="49.1766" y1="268.7875" x2="166.4281" y2="268.7875">
			<stop  offset="0" style="stop-color:#E90712"/>
			<stop  offset="1" style="stop-color:#870107"/>
		</linearGradient>
		<path class="st0" d="M155.36,248.61c-0.47,4.58-0.89,8.65-1.25,12.17c3.16,5.26,7.6,7.83,12.32,9.95
			c-0.74,2.19-2.38,1.94-3.86,1.96c-5.72,0.07-11.48-0.36-17.09,1.2c-4.75,1.32-9.82,2.01-14.14,4.19c-9.8,4.96-20,8.49-30.75,10.38
			c-3.72,0.65-7.68,0.64-11.44,0.21c-11.56-1.33-22.17-5.29-31.49-12.44c-3.19-2.44-6.13-5.07-8.48-8.91
			c3.2-4.42,7.77-6.56,12.58-8.41c11.01-4.25,22.5-3.82,33.94-3.41c7.71,0.28,14.76,3.16,21.55,6.7c4.69,2.45,9.48,4.69,14.46,7.13
			C137.56,260.03,143.7,251.8,155.36,248.61z"/>
		
			<linearGradient id="SVGID_00000110455070865728786140000012526281190640717747_" gradientUnits="userSpaceOnUse" x1="25.5907" y1="231.7218" x2="130.3077" y2="231.7218">
			<stop  offset="0" style="stop-color:#E90712"/>
			<stop  offset="1" style="stop-color:#870107"/>
		</linearGradient>
		<path style="fill:url(#SVGID_00000110455070865728786140000012526281190640717747_);" d="M128.04,261.08
			c-3.88-1.52-7.78-2.98-11.63-4.58c-9.45-3.92-19.23-5.75-29.5-5.65c-14.72,0.15-28.3-3.96-40.05-12.91
			c-10.79-8.22-18.19-18.93-21.27-32.66c4.52-3.72,9.92-3.03,15.13-2.46c7.99,0.88,15.76,3.06,22.8,6.87
			c5.66,3.06,10.98,6.87,16.03,10.87c5.57,4.41,9.6,10.3,13.64,16.12c1.59,2.3,3.62,4.28,5.68,6.68c2.8-1.47,5.26-2.5,7.44-3.96
			c5.85-3.92,12.56-4.09,19.17-4.58c1.35-0.1,2.78,0.85,4.82,1.52c-1.98,1.64-3.43,2.83-5.56,4.59c-0.67,1.66-1.65,4.12-2.42,6.03
			c0.03,5.88,3.78,9.38,6.62,13.32C128.64,260.55,128.34,260.81,128.04,261.08z"/>
		
			<linearGradient id="SVGID_00000135667740135782501140000012956978215518420355_" gradientUnits="userSpaceOnUse" x1="145.2622" y1="95.9257" x2="255.5209" y2="95.9257">
			<stop  offset="0" style="stop-color:#9EA303"/>
			<stop  offset="0.4469" style="stop-color:#EBD603"/>
			<stop  offset="0.8249" style="stop-color:#FEE610"/>
		</linearGradient>
		<path style="fill:url(#SVGID_00000135667740135782501140000012956978215518420355_);" d="M145.39,107.83
			c4.82-2.17,9.67-4.27,14.45-6.53c7.1-3.36,13.43-7.74,18.88-13.52c11.21-11.86,25.03-19.14,41.07-21.97
			c3.54-0.62,7.29-0.5,10.89-0.16c7.03,0.65,13.82,2.5,20.34,5.19c2.78,1.15,5.16,2.76,4.32,6.54
			c-7.01,9.13-16.19,15.38-27.13,19.06c-4.48,1.51-9.01,2.99-13.64,3.95c-7.52,1.55-15.14,1.27-22.73,0.14
			c-4.28-0.64-8.57-1.19-13.26-1.83c-0.93,2.13-1.97,3.76-2.36,5.53c-1.7,7.64-5.26,14.27-10.52,20c-0.8,0.87-2.01,1.37-3.37,2.27
			c-0.86-4.35-1.61-8.13-2.19-11.05c-4.08-5.51-9.39-6.15-14.88-6.36C145.3,108.66,145.35,108.24,145.39,107.83z"/>
		
			<linearGradient id="SVGID_00000170962371949673830790000018424127712698118559_" gradientUnits="userSpaceOnUse" x1="97.3551" y1="235.8756" x2="39.1898" y2="135.1302">
			<stop  offset="0" style="stop-color:#950209"/>
			<stop  offset="0.4469" style="stop-color:#E90712"/>
			<stop  offset="0.8249" style="stop-color:#477BB7"/>
		</linearGradient>
		<path style="fill:url(#SVGID_00000170962371949673830790000018424127712698118559_);" d="M33.79,138.25
			c11.35,3.05,19.86,9.34,26.88,17.66c3.3,3.9,6.05,8.31,8.75,12.68c5.51,8.91,8.52,18.62,9.02,29.14c0.12,2.58,1.09,5.12,1.78,8.18
			c10.78,0.01,21.43-0.65,30.3,6.41c-0.74,2.31-2.65,2.34-4.17,2.93c-5.94,2.29-7.95,5.53-7.41,11.79c0.21,2.43,0.31,4.86,0.48,7.66
			c-2.5-0.76-3.58-2.77-4.99-4.44c-5.56-6.59-11.33-13-18.54-17.84c-3.48-2.34-7.33-4.1-10.97-6.2
			c-10.91-6.33-19.82-14.73-26.27-25.62c-3.45-5.82-4.73-12.39-6.48-18.84c-1.77-6.53-0.02-12.86,0.19-19.27
			C32.39,141.21,33.17,139.98,33.79,138.25z"/>
		
			<linearGradient id="SVGID_00000052791261283450678080000004644120307023145380_" gradientUnits="userSpaceOnUse" x1="183.9884" y1="117.298" x2="298.9394" y2="117.298">
			<stop  offset="0" style="stop-color:#9EA303"/>
			<stop  offset="0.4469" style="stop-color:#EBD603"/>
			<stop  offset="0.8249" style="stop-color:#FEE610"/>
		</linearGradient>
		<path style="fill:url(#SVGID_00000052791261283450678080000004644120307023145380_);" d="M298.94,126.26
			c-4.08,3.28-7.29,5.29-11.65,6.36c-6.61,1.62-13.13,2.03-19.82,2.02c-8.91,0-17.36-2.15-25.41-5.71
			c-6.09-2.7-12.07-5.63-17.12-10.28c-2.3-2.12-5.56-3.2-8.47-4.79c-6.71,8.21-13.52,15.76-24.7,17.24
			c0.73-4.67,1.41-9.04,2.1-13.51c-1.77-1.95-3.19-3.68-4.78-5.25c-1.47-1.44-3.11-2.7-5.11-4.41c1.01-0.37,1.67-0.87,2.22-0.77
			c11.46,2.09,22.85,1.64,33.85-2.09c11.37-3.85,22.9-5.53,34.84-5.01c5.4,0.23,10.58,1.5,15.46,3.53
			c6.32,2.64,12.67,5.52,17.61,10.46C291.68,117.76,295.01,121.85,298.94,126.26z"/>
		
			<linearGradient id="SVGID_00000105405999035781286610000013583300840451963304_" gradientUnits="userSpaceOnUse" x1="86.4699" y1="85.3834" x2="76.5914" y2="198.2956">
			<stop  offset="0" style="stop-color:#06A0E0"/>
			<stop  offset="0.4469" style="stop-color:#0699DC"/>
			<stop  offset="0.8249" style="stop-color:#0369A6"/>
		</linearGradient>
		<path style="fill:url(#SVGID_00000105405999035781286610000013583300840451963304_);" d="M82.08,165.65
			c9.1,2.38,15.89,7.8,21.66,14.63c0.87,1.04,1.26,2.48,2.02,4.03c-14.53-1.37-16.99,2.78-20.16,14.77
			c-0.66-1.41-1.25-2.32-1.51-3.31c-1.45-5.51-2.62-11.09-4.25-16.54c-1.59-5.32-4.31-10.07-7.57-14.65
			c-6.89-9.67-12.54-20.02-15.08-31.82c-2.68-12.45-1.82-24.48,3.79-36.03c1.51-3.1,3.06-6.17,4.67-9.21
			c1.23-2.33,2.81-4.17,5.99-3.35c2.17,2.53,4.57,5.01,6.6,7.76c4.15,5.61,6.13,12.26,7.97,18.84c2.17,7.73,3.19,15.73,2.39,23.75
			c-0.66,6.59-1.74,13.17-4.37,19.37C82.76,157.37,81.5,160.96,82.08,165.65z"/>
		
			<linearGradient id="SVGID_00000157296584727602447190000006242461567885618354_" gradientUnits="userSpaceOnUse" x1="106.2485" y1="118.8506" x2="202.9282" y2="63.0326">
			<stop  offset="0" style="stop-color:#03619E"/>
			<stop  offset="0.4469" style="stop-color:#0699DC"/>
			<stop  offset="0.8249" style="stop-color:#FBEA21"/>
		</linearGradient>
		<path style="fill:url(#SVGID_00000157296584727602447190000006242461567885618354_);" d="M110.98,127.05
			c2.36-2.86,4.75-5.71,7.09-8.59c5.06-6.22,10.06-12.64,12.32-20.39c2.93-10.02,7.23-19.3,13.48-27.56
			c4.82-6.38,10.29-12.11,17.52-16.15c6.39-3.58,13.02-6,20.09-7.66c4.02-0.94,7.88-0.7,11.78-0.28c2.09,2.75,1.7,5.71,0.82,8.36
			c-2.28,6.86-5.01,13.51-10.31,18.8c-3.36,3.35-6.23,7.2-9.56,10.59c-7.95,8.09-17.76,12.93-28.56,16.04
			c-3.6,1.04-7.56,1.63-9.65,5.38c3.35,15.45,2.91,22.84-1.92,29.89c-2.11-3.95-4.13-7.87-8.46-9.84
			C120.75,124.9,115.94,125.5,110.98,127.05z"/>
		
			<linearGradient id="SVGID_00000048491920684650654520000005718133972481425584_" gradientUnits="userSpaceOnUse" x1="140.3456" y1="57.2468" x2="83.0248" y2="156.5293">
			<stop  offset="0" style="stop-color:#06A0E0"/>
			<stop  offset="0.4469" style="stop-color:#0699DC"/>
			<stop  offset="0.8249" style="stop-color:#0369A6"/>
		</linearGradient>
		<path style="fill:url(#SVGID_00000048491920684650654520000005718133972481425584_);" d="M101.11,127.93
			c7.3,8.29,13.01,16.82,12.8,28.28c-4.01-2.04-7.49-3.81-10.53-5.35c-6.83,1.99-7.9,2.69-14.14,9.26c0.08-1.34,0.03-2.13,0.19-2.87
			c1.6-7.42,3.7-14.78,4.69-22.28c0.58-4.42-0.58-9.07-0.96-13.62c-0.36-4.17-0.94-8.32-1.05-12.49
			c-0.18-6.67,0.22-13.24,1.93-19.83c4.79-18.46,15.8-31.4,33.3-39.28c2.77,2.98,3.61,6.57,3.96,10.42
			c1.21,13.46-1.26,26.27-7.06,38.38c-2.04,4.25-4.65,8.37-7.67,11.98c-3.51,4.21-6.45,9-11.36,12.03
			C103.58,123.56,102.69,125.79,101.11,127.93z"/>
		<circle class="st8" cx="72.57" cy="265.81" r="2.3"/>
		<circle class="st8" cx="43.8" cy="154.18" r="2.3"/>
		<circle class="st8" cx="66.81" cy="105.84" r="2.3"/>
		<circle class="st8" cx="112.84" cy="72.47" r="2.3"/>
		<circle class="st8" cx="170.39" cy="59.81" r="2.3"/>
		<circle class="st8" cx="232.53" cy="74.77" r="2.3"/>
		<circle class="st8" cx="278.56" cy="119.65" r="2.3"/>
		<circle class="st8" cx="44.95" cy="211.72" r="2.3"/>
	</g>
	<g>
		<path class="st8" d="M83.87,156.81c-1.09,6.73-2.79,14.13,1.49,20.09C79.81,171.76,81.38,163.07,83.87,156.81L83.87,156.81z"/>
	</g>
	<g>
		<path class="st8" d="M106.39,121.71c-3.84,5.64-8.52,11.62-7.18,18.83C96.36,133.53,101.47,126.32,106.39,121.71L106.39,121.71z"
			/>
	</g>
	<g>
		<path class="st8" d="M143.14,101.53c-5.77,3.65-12.44,7.27-14.07,14.42C129.24,108.39,136.79,103.8,143.14,101.53L143.14,101.53z"
			/>
	</g>
	<g>
		<path class="st8" d="M183.86,99.64c-6.82,0.08-14.4-0.32-19.54,4.92C168.43,98.2,177.27,98.25,183.86,99.64L183.86,99.64z"/>
	</g>
	<g>
		<path class="st8" d="M222.45,117.48c-6.1-3.06-12.64-6.91-19.61-4.62C209.41,109.11,217.23,113.22,222.45,117.48L222.45,117.48z"
			/>
	</g>
	<g>
		<path class="st8" d="M79.09,197.87c1.42,6.67,2.5,14.19,8.64,18.2C80.69,213.28,79.02,204.61,79.09,197.87L79.09,197.87z"/>
	</g>
	<g>
		<path class="st8" d="M93.6,237.12c4.88,4.76,9.96,10.41,17.3,10.33C103.5,249.04,97.29,242.76,93.6,237.12L93.6,237.12z"/>
	</g>
	<g>
		<path class="st8" d="M125.23,266.24c6.53,1.98,13.63,4.66,20.11,1.22C139.5,272.27,131.09,269.55,125.23,266.24L125.23,266.24z"/>
	</g>
	<polygon class="st9" points="164.53,254.3 165.55,256.36 167.82,256.69 166.18,258.3 166.57,260.57 164.53,259.5 162.49,260.57 
		162.88,258.3 161.23,256.69 163.51,256.36 	"/>
	<polygon class="st9" points="132.3,242.79 133.32,244.86 135.6,245.19 133.95,246.79 134.34,249.06 132.3,247.99 130.27,249.06 
		130.66,246.79 129.01,245.19 131.29,244.86 	"/>
	<polygon class="st9" points="110.44,220.93 111.46,222.99 113.74,223.32 112.09,224.93 112.48,227.2 110.44,226.12 108.4,227.2 
		108.79,224.93 107.14,223.32 109.42,222.99 	"/>
	<polygon class="st9" points="100.08,189.85 101.1,191.92 103.38,192.25 101.73,193.85 102.12,196.12 100.08,195.05 98.04,196.12 
		98.43,193.85 96.79,192.25 99.06,191.92 	"/>
	<polygon class="st9" points="101.23,159.93 102.25,162 104.53,162.33 102.88,163.93 103.27,166.2 101.23,165.13 99.2,166.2 
		99.58,163.93 97.94,162.33 100.21,162 	"/>
	<polygon class="st9" points="121.95,132.31 122.97,134.38 125.24,134.71 123.6,136.31 123.98,138.58 121.95,137.51 119.91,138.58 
		120.3,136.31 118.65,134.71 120.93,134.38 	"/>
	<polygon class="st9" points="148.42,117.35 149.44,119.42 151.71,119.75 150.06,121.35 150.45,123.62 148.42,122.55 146.38,123.62 
		146.77,121.35 145.12,119.75 147.4,119.42 	"/>
	<polygon class="st9" points="181.79,118.5 182.81,120.57 185.09,120.9 183.44,122.5 183.83,124.77 181.79,123.7 179.75,124.77 
		180.14,122.5 178.49,120.9 180.77,120.57 	"/>
</g>
</svg>
