<?xml version="1.0" encoding="utf-8"?>
<!-- Generator: Adobe Illustrator 28.1.0, SVG Export Plug-In . SVG Version: 6.00 Build 0)  -->
<svg version="1.1" id="Layer_1" xmlns="http://www.w3.org/2000/svg" xmlns:xlink="http://www.w3.org/1999/xlink" x="0px" y="0px"
	 viewBox="0 0 238.93 213.27" style="enable-background:new 0 0 238.93 213.27;" xml:space="preserve">
<style type="text/css">
	.st0{fill:url(#SVGID_1_);}
	.st1{fill:url(#SVGID_00000170975714223600797950000011250224674518513085_);}
	.st2{fill:url(#SVGID_00000083085120065978060800000016386833468257030333_);}
	.st3{fill:url(#SVGID_00000011030794091251956440000006149498467651678598_);}
	.st4{fill:url(#SVGID_00000112620445048741955830000012943196658292128939_);}
	.st5{fill:url(#SVGID_00000177484451358030666470000007358758628578151826_);}
	.st6{fill:url(#SVGID_00000052798762766141711030000011703720089695841722_);}
	.st7{fill:url(#SVGID_00000109726072559395881480000010597521597738539664_);}
</style>
<g>
	<linearGradient id="SVGID_1_" gradientUnits="userSpaceOnUse" x1="45.7901" y1="172.621" x2="122.1777" y2="172.621">
		<stop  offset="0" style="stop-color:#E3131A"/>
		<stop  offset="1" style="stop-color:#861811"/>
	</linearGradient>
	<path class="st0" d="M114.15,167.4c0.24-2.29,0.51-4.95,0.82-7.93c-7.6,2.08-11.6,7.44-15.41,13.5c-3.24-1.59-6.36-3.05-9.42-4.65
		c-4.42-2.31-9.02-4.18-14.04-4.37c-7.45-0.27-14.94-0.55-22.11,2.22c-3.13,1.21-6.11,2.6-8.19,5.48c1.53,2.5,3.45,4.21,5.53,5.81
		c6.07,4.66,12.98,7.24,20.51,8.11c2.45,0.28,5.03,0.29,7.46-0.14c7-1.23,13.65-3.53,20.03-6.76c2.81-1.42,6.12-1.87,9.21-2.73
		c3.66-1.01,7.41-0.74,11.13-0.78c0.96-0.01,2.04,0.15,2.51-1.28C119.1,172.51,116.21,170.83,114.15,167.4z M61.03,172.18
		c-0.83,0-1.5-0.67-1.5-1.5s0.67-1.5,1.5-1.5c0.83,0,1.5,0.67,1.5,1.5S61.86,172.18,61.03,172.18z"/>
	
		<linearGradient id="SVGID_00000034782348198813665840000002901108207179938987_" gradientUnits="userSpaceOnUse" x1="34.1976" y1="118.9899" x2="85.7554" y2="118.9899">
		<stop  offset="0.1751" style="stop-color:#467CB7"/>
		<stop  offset="0.5531" style="stop-color:#E3131A"/>
		<stop  offset="1" style="stop-color:#941914"/>
	</linearGradient>
	<path style="fill:url(#SVGID_00000034782348198813665840000002901108207179938987_);" d="M66.01,131.65
		c-0.45-1.99-1.08-3.65-1.16-5.33c-0.33-6.85-2.28-13.18-5.88-18.98c-1.76-2.84-3.55-5.71-5.7-8.26
		c-4.58-5.42-10.12-9.52-17.51-11.5c-0.4,1.13-0.91,1.93-0.94,2.74c-0.14,4.18-1.28,8.3-0.12,12.56c1.14,4.2,1.98,8.48,4.22,12.27
		c4.2,7.1,10.01,12.57,17.11,16.69c2.37,1.37,4.88,2.52,7.15,4.04c4.69,3.15,8.46,7.33,12.08,11.63c0.92,1.09,1.62,2.4,3.25,2.9
		c-0.11-1.82-0.17-3.41-0.31-4.99c-0.35-4.08,0.96-6.19,4.83-7.68c0.99-0.38,2.24-0.4,2.72-1.91
		C79.98,131.22,73.04,131.65,66.01,131.65z M42.28,99.45c-0.83,0-1.5-0.67-1.5-1.5c0-0.83,0.67-1.5,1.5-1.5c0.83,0,1.5,0.67,1.5,1.5
		C43.78,98.78,43.11,99.45,42.28,99.45z"/>
	
		<linearGradient id="SVGID_00000161611967211631669500000016521628336582001325_" gradientUnits="userSpaceOnUse" x1="66.3597" y1="127.2106" x2="66.3597" y2="52.2209">
		<stop  offset="0.1751" style="stop-color:#046AA6"/>
		<stop  offset="0.5531" style="stop-color:#1796D4"/>
		<stop  offset="1" style="stop-color:#179EDA"/>
	</linearGradient>
	<path style="fill:url(#SVGID_00000161611967211631669500000016521628336582001325_);" d="M81.34,114.96
		c-3.76-4.45-8.19-7.98-14.11-9.53c-0.38-3.06,0.44-5.4,1.4-7.66c1.72-4.04,2.42-8.32,2.85-12.62c0.52-5.23-0.14-10.44-1.56-15.47
		c-1.2-4.28-2.49-8.61-5.2-12.27c-1.32-1.79-2.88-3.4-4.3-5.05c-2.07-0.53-3.1,0.67-3.9,2.19c-1.05,1.98-2.06,3.98-3.04,6
		c-3.66,7.52-4.21,15.36-2.47,23.47c1.65,7.69,5.34,14.43,9.82,20.73c2.12,2.98,3.89,6.08,4.93,9.54c1.06,3.55,1.83,7.19,2.77,10.77
		c0.17,0.65,0.56,1.24,0.99,2.16c2.06-7.81,3.67-10.52,13.13-9.62C82.17,116.58,81.91,115.64,81.34,114.96z M57.28,67.96
		c-0.83,0-1.5-0.67-1.5-1.5s0.67-1.5,1.5-1.5c0.83,0,1.5,0.67,1.5,1.5S58.11,67.96,57.28,67.96z"/>
	
		<linearGradient id="SVGID_00000053512249663131217340000018189666925015739809_" gradientUnits="userSpaceOnUse" x1="71.8953" y1="65.87" x2="99.4884" y2="65.87">
		<stop  offset="0.1751" style="stop-color:#046AA6"/>
		<stop  offset="0.5531" style="stop-color:#1796D4"/>
		<stop  offset="1" style="stop-color:#179EDA"/>
	</linearGradient>
	<path style="fill:url(#SVGID_00000053512249663131217340000018189666925015739809_);" d="M99.29,36.7
		c-0.23-2.51-0.78-4.85-2.58-6.79c-11.4,5.13-18.57,13.56-21.69,25.59c-1.11,4.29-1.37,8.58-1.26,12.92
		c0.07,2.72,0.45,5.43,0.68,8.14c0.25,2.96,1.01,5.99,0.63,8.87c-0.64,4.89-2.01,9.68-3.05,14.52c-0.1,0.48-0.07,1-0.13,1.87
		c4.06-4.28,4.76-4.73,9.21-6.03c1.98,1,4.24,2.16,6.86,3.48c0.13-7.47-3.58-13.02-8.34-18.42c1.03-1.39,1.6-2.85,2.67-3.51
		c3.19-1.97,5.11-5.1,7.4-7.84c1.97-2.36,3.67-5.04,5-7.81C98.47,53.82,100.08,45.47,99.29,36.7z M87.27,46.22
		c-0.83,0-1.5-0.67-1.5-1.5c0-0.83,0.67-1.5,1.5-1.5c0.83,0,1.5,0.67,1.5,1.5C88.77,45.55,88.1,46.22,87.27,46.22z"/>
	
		<linearGradient id="SVGID_00000107571339841623896970000013590739499442531771_" gradientUnits="userSpaceOnUse" x1="86.0539" y1="56.6292" x2="140.6526" y2="56.6292">
		<stop  offset="0" style="stop-color:#02619E"/>
		<stop  offset="0.4469" style="stop-color:#1796D4"/>
		<stop  offset="0.8249" style="stop-color:#FAE927"/>
	</linearGradient>
	<path style="fill:url(#SVGID_00000107571339841623896970000013590739499442531771_);" d="M139.66,27.74
		c-2.54-0.28-5.06-0.43-7.68,0.18c-4.61,1.08-8.92,2.66-13.09,4.99c-4.7,2.64-8.27,6.37-11.41,10.52
		c-4.07,5.38-6.87,11.43-8.78,17.96c-1.48,5.05-4.73,9.23-8.03,13.28c-1.53,1.88-3.08,3.73-4.62,5.6c3.23-1.01,6.36-1.4,9.54-0.93
		c2.82,1.28,4.14,3.84,5.51,6.41c3.15-4.59,3.43-9.4,1.25-19.47c1.36-2.44,3.94-2.83,6.29-3.5c7.03-2.02,13.43-5.18,18.6-10.45
		c2.17-2.21,4.04-4.71,6.23-6.9c3.45-3.45,5.23-7.78,6.72-12.25C140.77,31.46,141.01,29.54,139.66,27.74z M124.76,37.97
		c-0.83,0-1.5-0.67-1.5-1.5c0-0.83,0.67-1.5,1.5-1.5c0.83,0,1.5,0.67,1.5,1.5C126.26,37.3,125.58,37.97,124.76,37.97z"/>
	
		<linearGradient id="SVGID_00000183226293094269276670000005786345854951104679_" gradientUnits="userSpaceOnUse" x1="108.3885" y1="60.0041" x2="180.2203" y2="60.0041">
		<stop  offset="0" style="stop-color:#9DA21E"/>
		<stop  offset="0.4469" style="stop-color:#EAD500"/>
		<stop  offset="0.8249" style="stop-color:#FDE513"/>
	</linearGradient>
	<path style="fill:url(#SVGID_00000183226293094269276670000005786345854951104679_);" d="M177.3,43.66
		c-4.25-1.75-8.68-2.96-13.25-3.38c-2.35-0.22-4.79-0.3-7.1,0.11c-10.45,1.84-19.46,6.59-26.76,14.31
		c-3.55,3.76-7.68,6.62-12.3,8.81c-3.11,1.47-6.27,2.84-9.41,4.26c-0.03,0.27-0.06,0.54-0.08,0.81c3.58,0.14,7.04,0.56,9.7,4.15
		c0.38,1.9,0.87,4.36,1.43,7.2c0.89-0.58,1.68-0.91,2.2-1.48c3.43-3.73,5.75-8.05,6.85-13.03c0.26-1.15,0.93-2.21,1.54-3.6
		c3.06,0.42,5.85,0.78,8.64,1.19c4.94,0.74,9.91,0.92,14.81-0.09c3.01-0.62,5.96-1.59,8.88-2.57c7.13-2.4,13.11-6.47,17.68-12.42
		C180.66,45.46,179.11,44.41,177.3,43.66z M165.24,47.72c-0.83,0-1.5-0.67-1.5-1.5c0-0.83,0.67-1.5,1.5-1.5c0.83,0,1.5,0.67,1.5,1.5
		C166.74,47.05,166.07,47.72,165.24,47.72z"/>
	
		<linearGradient id="SVGID_00000136392515718188087420000003896581706359937702_" gradientUnits="userSpaceOnUse" x1="133.6179" y1="73.9278" x2="208.5068" y2="73.9278">
		<stop  offset="0" style="stop-color:#9DA21E"/>
		<stop  offset="0.4469" style="stop-color:#EAD500"/>
		<stop  offset="0.8249" style="stop-color:#FDE513"/>
	</linearGradient>
	<path style="fill:url(#SVGID_00000136392515718188087420000003896581706359937702_);" d="M208.51,79.76
		c-2.56-2.87-4.73-5.54-7.15-7.96c-3.22-3.22-7.36-5.09-11.47-6.81c-3.18-1.33-6.56-2.15-10.07-2.3c-7.78-0.34-15.29,0.75-22.7,3.26
		c-7.16,2.43-14.59,2.72-22.05,1.36c-0.36-0.07-0.79,0.26-1.44,0.5c1.3,1.11,2.37,1.93,3.33,2.87c1.04,1.02,1.97,2.15,3.12,3.42
		c-0.45,2.91-0.9,5.76-1.37,8.8c7.28-0.96,11.72-5.89,16.09-11.23c1.89,1.04,4.02,1.74,5.52,3.12c3.29,3.03,7.18,4.94,11.15,6.7
		c5.24,2.32,10.74,3.72,16.55,3.72c4.36,0,8.61-0.26,12.91-1.32C203.76,83.21,205.85,81.9,208.51,79.76z M195.23,76.96
		c-0.83,0-1.5-0.67-1.5-1.5c0-0.83,0.67-1.5,1.5-1.5c0.83,0,1.5,0.67,1.5,1.5C196.73,76.29,196.06,76.96,195.23,76.96z"/>
	
		<linearGradient id="SVGID_00000058570214279337727960000014401339673649110421_" gradientUnits="userSpaceOnUse" x1="30.4242" y1="148.4732" x2="98.6458" y2="148.4732">
		<stop  offset="0" style="stop-color:#E3131A"/>
		<stop  offset="1" style="stop-color:#861811"/>
	</linearGradient>
	<path style="fill:url(#SVGID_00000058570214279337727960000014401339673649110421_);" d="M95.02,154.48
		c1.39-1.15,2.33-1.92,3.62-2.99c-1.33-0.44-2.26-1.06-3.14-0.99c-4.31,0.32-8.68,0.43-12.49,2.98c-1.42,0.95-3.02,1.62-4.85,2.58
		c-1.34-1.56-2.67-2.86-3.7-4.35c-2.63-3.8-5.26-7.63-8.88-10.5c-3.29-2.61-6.76-5.09-10.45-7.08c-4.59-2.48-9.65-3.9-14.85-4.47
		c-3.4-0.38-6.92-0.82-9.86,1.6c2.01,8.95,6.83,15.92,13.86,21.28c7.65,5.83,16.5,8.5,26.09,8.41c6.69-0.07,13.06,1.13,19.22,3.68
		c2.51,1.04,5.05,1.99,7.58,2.98c0.2-0.17,0.4-0.35,0.59-0.52c-1.84-2.57-4.29-4.84-4.31-8.68
		C93.95,157.16,94.59,155.56,95.02,154.48z M43.03,136.94c-0.83,0-1.5-0.67-1.5-1.5s0.67-1.5,1.5-1.5s1.5,0.67,1.5,1.5
		S43.86,136.94,43.03,136.94z"/>
</g>
</svg>
