<?xml version="1.0" encoding="utf-8"?>
<!-- Generator: Adobe Illustrator 27.1.1, SVG Export Plug-In . SVG Version: 6.00 Build 0)  -->
<svg version="1.1" id="Capa_1" xmlns="http://www.w3.org/2000/svg" xmlns:xlink="http://www.w3.org/1999/xlink" x="0px" y="0px"
	 viewBox="0 0 128 126" style="enable-background:new 0 0 128 126;" xml:space="preserve">
<style type="text/css">
	.st0{fill:#808080;}
</style>
<g>
	<path class="st0" d="M82,66.99h-5.36c-0.49,0-0.9-0.4-0.9-0.9v-5.36c0-0.49,0.4-0.9,0.9-0.9H82c0.49,0,0.9,0.4,0.9,0.9v5.36
		C82.9,66.59,82.49,66.99,82,66.99z"/>
	<g>
		<path class="st0" d="M63.66,47.89c-8.57,0-15.52,6.95-15.52,15.52c0,8.57,6.95,15.52,15.52,15.52s15.52-6.95,15.52-15.52
			C79.18,54.84,72.24,47.89,63.66,47.89z M63.66,71.38c-4.4,0-7.96-3.56-7.96-7.96c0-4.4,3.56-7.96,7.96-7.96s7.96,3.56,7.96,7.96
			C71.62,67.81,68.06,71.38,63.66,71.38z"/>
		<path class="st0" d="M65.82,51.59h-4.76c-0.64,0-1.16-0.52-1.16-1.16v-4.76c0-0.64,0.52-1.16,1.16-1.16h4.76
			c0.64,0,1.16,0.52,1.16,1.16v4.76C66.98,51.07,66.46,51.59,65.82,51.59z"/>
		<path class="st0" d="M72.6,56.51l-3.26-3.26c-0.48-0.48-0.48-1.27,0-1.75l3.26-3.26c0.48-0.48,1.27-0.48,1.75,0l3.26,3.26
			c0.48,0.48,0.48,1.27,0,1.75l-3.26,3.26C73.87,56.99,73.09,56.99,72.6,56.51z"/>
		<path class="st0" d="M74.66,78.88l-3.57-3.57c-0.41-0.41-0.41-1.08,0-1.49l3.57-3.57c0.41-0.41,1.08-0.41,1.49,0l3.57,3.57
			c0.41,0.41,0.41,1.08,0,1.49l-3.57,3.57C75.74,79.29,75.07,79.29,74.66,78.88z"/>
		<path class="st0" d="M51.36,57.3l-3.27-3.27c-0.48-0.48-0.48-1.26,0-1.74l3.27-3.27c0.48-0.48,1.26-0.48,1.74,0l3.27,3.27
			c0.48,0.48,0.48,1.26,0,1.74L53.1,57.3C52.62,57.78,51.84,57.78,51.36,57.3z"/>
		<path class="st0" d="M51.47,78.66l-3.49-3.49c-0.42-0.42-0.42-1.1,0-1.52l3.49-3.49c0.42-0.42,1.1-0.42,1.52,0l3.49,3.49
			c0.42,0.42,0.42,1.1,0,1.52l-3.49,3.49C52.57,79.08,51.89,79.08,51.47,78.66z"/>
		<path class="st0" d="M50.14,67.33h-4.48c-0.72,0-1.3-0.58-1.3-1.3v-4.48c0-0.72,0.58-1.3,1.3-1.3h4.48c0.72,0,1.3,0.58,1.3,1.3
			v4.48C51.44,66.75,50.86,67.33,50.14,67.33z"/>
		<path class="st0" d="M66.34,81.72h-4.95c-0.61,0-1.11-0.5-1.11-1.11v-4.95c0-0.61,0.5-1.11,1.11-1.11h4.95
			c0.61,0,1.11,0.5,1.11,1.11v4.95C67.44,81.23,66.95,81.72,66.34,81.72z"/>
	</g>
</g>
</svg>
