<?xml version="1.0" encoding="utf-8"?>
<!-- Generator: Adobe Illustrator 27.1.1, SVG Export Plug-In . SVG Version: 6.00 Build 0)  -->
<svg version="1.1" id="Capa_1" xmlns="http://www.w3.org/2000/svg" xmlns:xlink="http://www.w3.org/1999/xlink" x="0px" y="0px"
	 viewBox="0 0 128 126" style="enable-background:new 0 0 128 126;" xml:space="preserve">
<style type="text/css">
	.st0{fill:none;stroke:#0071BC;stroke-width:2;stroke-miterlimit:10;}
	.st1{fill:none;stroke:#0071BC;stroke-miterlimit:10;}
	.st2{fill:#0071BC;stroke:#0071BC;stroke-miterlimit:10;}
	.st3{fill:none;}
	.st4{font-family:'CenturyGothic';}
	.st5{font-size:30.8993px;}
</style>
<g>
	<path class="st0" d="M88.41,95.72h-48.2c-2.13,0-3.86-1.73-3.86-3.86v-48.2c0-2.13,1.73-3.86,3.86-3.86h48.2
		c2.13,0,3.86,1.73,3.86,3.86v48.2C92.26,93.99,90.54,95.72,88.41,95.72z"/>
	<path class="st1" d="M93,50.84H35.62v-6.46c0-2.94,2.38-5.31,5.31-5.31h47.85c2.33,0,4.22,1.89,4.22,4.22V50.84z"/>
	<path class="st2" d="M48.36,43.49h-1.95c-0.27,0-0.5-0.22-0.5-0.5v-9.31c0-0.27,0.22-0.5,0.5-0.5h1.95c0.27,0,0.5,0.22,0.5,0.5
		v9.31C48.86,43.27,48.64,43.49,48.36,43.49z"/>
	<path class="st2" d="M58.73,43.49h-2.09c-0.24,0-0.43-0.19-0.43-0.43v-9.45c0-0.24,0.19-0.43,0.43-0.43h2.09
		c0.24,0,0.43,0.19,0.43,0.43v9.45C59.16,43.3,58.97,43.49,58.73,43.49z"/>
	<path class="st2" d="M70.46,43.49h-2.01c-0.26,0-0.47-0.21-0.47-0.47v-9.37c0-0.26,0.21-0.47,0.47-0.47h2.01
		c0.26,0,0.47,0.21,0.47,0.47v9.37C70.93,43.28,70.72,43.49,70.46,43.49z"/>
	<path class="st2" d="M80.68,43.49h-1.85c-0.3,0-0.54-0.24-0.54-0.54v-9.21c0-0.3,0.24-0.54,0.54-0.54h1.85
		c0.3,0,0.54,0.24,0.54,0.54v9.21C81.23,43.24,80.99,43.49,80.68,43.49z"/>
	<rect x="56.24" y="61.34" class="st3" width="21.31" height="24.08"/>
	<text transform="matrix(1 0 0 1 56.2363 84.0815)" class="st2 st4 st5">7</text>
</g>
</svg>
