<?xml version="1.0" encoding="utf-8"?>
<!-- Generator: Adobe Illustrator 27.1.1, SVG Export Plug-In . SVG Version: 6.00 Build 0)  -->
<svg version="1.1" id="Capa_1" xmlns="http://www.w3.org/2000/svg" xmlns:xlink="http://www.w3.org/1999/xlink" x="0px" y="0px"
	 viewBox="0 0 128 126" style="enable-background:new 0 0 128 126;" xml:space="preserve">
<style type="text/css">
	.st0{fill:none;stroke:#0071BC;stroke-width:1.5;stroke-miterlimit:10;}
	.st1{fill:#0071BC;stroke:#0071BC;stroke-width:0.25;stroke-miterlimit:10;}
</style>
<g>
	<path class="st0" d="M82.8,45.12v46.16c0,1-0.81,1.82-1.82,1.82H38.91c-1,0-1.82-0.81-1.82-1.82V34.82c0-1,0.81-1.82,1.82-1.82
		h31.77c0.48,0,0.94,0.19,1.29,0.53l10.3,10.3C82.61,44.18,82.8,44.64,82.8,45.12z"/>
	<path class="st0" d="M82.02,44.62l-8.57,1.36c-0.63,0.1-1.21-0.36-1.25-1l-0.77-10.89c-0.02-0.24,0.27-0.37,0.44-0.21l10.47,9.72
		C82.69,43.93,82.51,44.54,82.02,44.62z"/>
	<circle class="st1" cx="73.92" cy="66.43" r="14.81"/>
	<path class="st0" d="M94.55,86.5L79.29,74.76c-0.6-0.46-0.72-1.33-0.25-1.94l1.93-2.51c0.46-0.6,1.33-0.72,1.94-0.25L98.16,81.8
		c0.6,0.46,0.72,1.33,0.25,1.94l-1.93,2.51C96.02,86.85,95.15,86.97,94.55,86.5z"/>
	<line class="st0" x1="43.87" y1="48.24" x2="59.95" y2="48.24"/>
	<line class="st0" x1="43.87" y1="56.7" x2="63.33" y2="56.7"/>
	<line class="st0" x1="43.87" y1="66.01" x2="59.95" y2="66.01"/>
	<line class="st0" x1="43.87" y1="75.32" x2="64.18" y2="75.32"/>
	<line class="st0" x1="43.87" y1="84.63" x2="71.8" y2="84.63"/>
</g>
</svg>
